<svg version="1.2" xmlns="http://www.w3.org/2000/svg" viewBox="0 0 3694 1630" width="3694" height="1630">
  <title>logo-savebys-gray-slogan-cropped-svg</title>
  <style>
    .s0 {
      fill: #d03833
    }

    .s1 {
      fill: #FFF
    }
  </style>
  <g id="Layer">
    <path id="Heart" fill-rule="evenodd" class="s0"
      d="m3369.7 30c28.7 4.7 61.1 23.2 79.4 45.4 3 3.5 5.8 6.5 6.2 6.5 0.4 0.1 5.6-4 11.5-8.9 16.5-14 27.5-21.5 41.7-28.5 26.8-13.3 54.2-16.4 85.4-9.6 43.2 9.5 75.7 37.2 88.5 75.6 10.9 32.6 5.6 67.1-17.4 114-11.5 23.5-25 44.3-44.6 68.5-13.2 16.4-23.8 28.4-55.8 63-15.6 16.8-44.4 48-64.2 69.5-40.4 43.7-81.6 87-84.3 88.5-1.7 0.8-3.1-4.2-16.7-58l-14.9-59-15.5-14.2c-36.8-34-79.5-77.6-99.7-101.8-36.6-43.8-53.3-79.5-55-117.5-0.9-20.5 2.7-35.7 13.8-58.1 21.3-43 60.4-71.2 106.2-76.4 8.3-1 26.4-0.5 35.4 1zm150.3 99.9c-9.5 2.9-19.4 12.3-23 21.9-3 7.8-2.5 18.3 1.3 26.6 4.1 8.9 8.8 14.7 25.3 31.6l15.3 15.5 3.6 14.5c2 8 3.8 14.7 4.1 14.9 0.2 0.3 2.3-1.3 4.5-3.5 7.2-6.9 45.1-48.3 50.6-55.2 9.3-11.7 16.3-27.4 16.3-36.7 0-14.8-11-26.8-26.9-29.4-10.8-1.8-19.6 0.7-29 8.2l-4.5 3.5-4.8-4.3c-2.7-2.4-7.4-5.3-10.4-6.4-5.6-2.2-17.2-2.7-22.4-1.2z" />
    <g id="SAVE">
      <path id="Layer" class="s0"
        d="m200.1 503.1c-88.5 7.9-155.1 55.7-175.5 126-4.6 16.1-6 26.9-6 48.4 0 44.7 10 69.6 39.2 97.6 12.7 12.3 24.5 20.1 45.7 30.5 17 8.3 26.3 11.7 69.5 25.4 27.3 8.7 46.8 15.9 57.5 21.2 17.6 8.8 31.6 20.1 36.4 29.6 6.8 13.4 6.7 33.7-0.4 45.7-17.5 29.8-71.5 42.5-117.3 27.6-23.7-7.8-44.5-21.6-59.2-39.1l-4.6-5.6-42.3 46.4-42.2 46.4 2.3 2.5c9.9 10.7 37.7 29.7 57.2 39.2 37.2 18.2 74.8 26.3 122.1 26.3 35.5 0 64.1-4.5 93.1-14.6 60-20.9 101.1-66.6 112.5-124.9 5.7-29.3 4.2-66.2-3.7-90.4-5.7-17.6-17.6-35.6-33.3-50.5-11-10.5-23.5-19-40.1-27.3-16.6-8.3-27.2-12.4-48.1-18.5-33.7-10-61.6-18.9-72.2-23.3-23.2-9.6-38-20.5-43.7-32-6.2-12.9-6.4-29.9-0.3-42.4 7.4-15.3 26.6-27.4 52.3-32.9 11.6-2.5 35.1-2.5 47 0 26.1 5.5 45.9 15.2 58.2 28.4l4.8 5.1 40.8-44.7 40.9-44.7-7.1-5.8c-16.9-13.9-39.8-27-60.1-34.3-36-12.9-83.8-18.8-123.4-15.3z" />
      <path id="Layer" fill-rule="evenodd" class="s0"
        d="m658.9 516h98.6l117.5 270.2c64.6 148.5 117.7 270.4 117.8 270.9 0.2 0.5-29 0.9-67 0.9h-67.3l-46.8-115h-210.4l-22.5 57.2-22.6 57.3-65.6 0.3c-36.1 0.1-65.6-0.1-65.6-0.5 0-0.6 224.1-519.5 231.1-535.1zm46.1 159.7c-0.4-0.5-1.5 1.1-2.5 3.5-0.9 2.4-15.4 39.4-32.2 82.3-16.8 42.9-30.7 78.6-31 79.2-0.4 1 13.1 1.3 65.7 1.3 52.6 0 66.1-0.3 65.7-1.3-0.3-0.6-15-37.9-32.7-82.7-17.7-44.8-32.6-81.9-33-82.3z" />
      <path id="Layer" class="s0"
        d="m947 516.7c0 0.5 48.6 122.4 108.1 271l108.1 270.3h47.7 47.6l111.7-270.8 111.6-270.7-63.6-0.3c-34.9-0.1-63.7-0.1-63.9 0.1-0.1 0.2-30.8 80-68.2 177.2-37.3 97.3-68.2 177-68.7 177.2-0.5 0.2-31-79.6-67.8-177.2l-67-177.5h-67.8c-37.3 0-67.8 0.3-67.8 0.7z" />
      <path id="Layer" class="s0"
        d="m1543 787v271h191 191v-55-55h-131-131v-55.5-55.5h117.5 117.5v-55-55h-117.5-117.5v-50.5-50.5h124 124v-55-55h-184-184z" />
    </g>
    <g id="BYS">
      <path id="Layer" class="s1"
        d="m3170 502.7c-54.9 5.6-99.2 24.3-131.3 55.2-35 33.7-51.3 75.6-49.4 127.1 1.2 31.9 7.4 51.8 22.5 72 22.9 30.7 55.1 50.4 111.2 67.8 54.2 16.9 76.8 25.8 93.6 36.7 14.9 9.7 22.9 20.2 25.4 33.4 6.3 33.7-19.4 59-66.5 65.2-39.7 5.2-85.9-12.4-111.7-42.5-3.4-3.9-6.5-7.2-6.8-7.4-0.4-0.2-20 20.8-43.4 46.5l-42.7 46.8 5.3 4.8c8.4 7.7 27.4 21.7 38 28 38 22.6 79.3 33.9 129.8 35.4 112.7 3.4 192.7-46 214.5-132.4 4.3-17 5.9-52.1 3.5-72.3-3.3-26.8-12.9-48.1-30.2-67.6-13.5-15.1-27.2-25.4-48.5-36.2-17-8.6-26-11.9-61.3-22.6-53.4-16.1-67.8-21.6-84.7-32.5-13.3-8.5-19.9-17.4-22.3-30.1-5.6-29.8 13.2-52.5 51.7-62.2 7.6-2 11.3-2.3 27.8-2.2 18 0 19.6 0.2 30.8 3.1 21.4 5.7 34.7 12.6 47.2 24.4l8 7.7 40.5-44.3c22.3-24.4 40.6-45 40.8-45.7 0.3-1.7-12.9-12.4-25.8-20.7-28.7-18.6-66.1-30.7-108.9-35-9.4-1-48.8-1.3-57.1-0.4z" />
      <path id="Layer" fill-rule="evenodd" class="s1"
        d="m2020 515.9l122.3 0.4c117.7 0.3 122.8 0.4 138.8 2.5 31.6 4 51.5 9.4 72.5 19.6 24.2 11.8 44.5 31.4 55.2 53.1 8.3 16.7 11.1 30.3 11.9 56 0.4 14.7 0.1 21.2-1.1 28.7-4.3 26.4-14.9 46.5-34.1 64.6-13.7 13-32.2 24.1-51 30.6-5.7 2-6.5 2.5-4.5 2.9 35.2 6.8 59.9 18.8 80.1 38.9 26.9 26.9 39.9 66.1 36 108.9-2.5 27.4-9.3 45.9-24.2 66-23.4 31.5-61.3 53.2-109.8 62.9-33.5 6.6-26 6.3-165.3 6.7l-126.8 0.4zm167.4 102.1h-46.4v114h47.3c50.2 0 58.6-0.6 72-5.1 28.6-9.6 43.8-33 39.8-61.3-3.5-25.7-23.7-41.7-58.6-46.5-4.5-0.7-26.6-1.1-54.1-1.1zm8.9 216.3l-55.3-0.4v122.2l62.3-0.4c59.7-0.3 62.6-0.4 71.1-2.5 17.5-4.3 32.5-13.7 41.2-25.7 6.8-9.6 9.5-17.7 10.1-30.6 0.9-17.7-2.8-28.2-13.6-38.9-11.1-11-26.7-17.7-50.3-21.6-8.6-1.4-19.4-1.8-65.5-2.1z" />
      <path id="Layer" class="s1"
        d="m2446 516.6c0 0.3 45.7 70.2 101.5 155.4l101.5 154.9v115.6 115.5h60.5 60.5v-115.8-115.7l101.5-154.9c55.8-85.2 101.5-155 101.5-155.2 0-0.2-32.1-0.4-71.4-0.4h-71.3l-60.4 100.6c-47.3 78.9-60.5 100.3-61.3 99.1-0.6-0.8-26.3-46.1-57.1-100.6l-56-99-74.7-0.1c-41.2 0-74.8 0.2-74.8 0.6z" />
    </g>
    <filter id="f0">
      <feFlood flood-color="#FFF" flood-opacity="1" />
      <feBlend mode="normal" in2="SourceGraphic" />
      <feComposite in2="SourceAlpha" operator="in" />
    </filter>
    <g id="Slogan" filter="url(#f0)">
      <path id="Layer" class="s0" d="m307 1461.5v97.5h12.5 12.5v-97.5-97.5h-12.5-12.5z" />
      <path id="Layer" class="s0"
        d="m1185.6 1387.9c-6.4 10.4-11.6 19.4-11.6 20 0 0.7 3.2 1.1 8.8 1.1h8.7l15-17.6c8.3-9.7 15.8-18.7 16.8-20l1.9-2.4h-14-13.9z" />
      <path id="Layer" class="s0"
        d="m2709.8 1388.3c-7.1 10.6-12.8 19.6-12.8 20 0 0.4 4.2 0.7 9.4 0.7h9.4l6.8-11.3c3.7-6.1 7.3-12 7.9-12.9 0.9-1.4 2.3 0.3 9 11.3l7.8 12.9h9.4c7.7 0 9.4-0.3 9.1-1.4-0.2-0.8-5.9-9.8-12.8-20l-12.5-18.5h-9l-9-0.1z" />
      <path id="Layer" class="s0"
        d="m82.8 1372.1c-13.8 2-25.9 8.1-34.6 17.3-9.3 9.8-12.8 20.1-12 35.4 0.4 7.9 0.9 9.9 4.1 16.5 6.5 13 18.9 22.7 39.7 30.8 21.3 8.4 31.6 15.3 36.2 24.4 2.5 4.8 3.5 15.4 1.9 21.1-6.2 23.1-39.1 29.8-72 14.8-4.1-1.9-7.8-3.1-8.2-2.7-0.8 0.9-5.9 17.5-5.9 19.1 0 1.7 10.5 6.2 20.9 8.9 8.4 2.3 11.7 2.6 26.1 2.7 14.3 0 17.5-0.2 24.5-2.2 25.7-7.4 40.5-25.6 40.5-49.9 0-13.9-3.7-24.4-11.7-33.3-8-8.9-16.6-13.9-41.8-24.4-21.1-8.8-29.5-17.8-29.5-31.3 0-10.9 6-19.6 16.9-24.7 4-1.8 6.4-2.1 18.1-2.1 12.7 0 14 0.2 22.5 3.3 5 1.8 9.7 3.5 10.5 3.8 1.2 0.4 2.3-1.8 4.8-9.3 3.8-11.5 4.1-11-8-14.8-13-4.1-29.4-5.4-43-3.4z" />
      <path id="Layer" class="s0"
        d="m1408.9 1376.3c-12.4 8.2-6.7 27.7 8 27.7 9.4 0 15.5-6 15.4-15-0.1-9.4-5.7-15-14.9-15-3.6 0-6.1 0.6-8.5 2.3z" />
      <path id="Layer" fill-rule="evenodd" class="s0"
        d="m234.8 1424.5c16.5 3.9 26.2 13.2 31.8 30.5 1.5 4.8 1.8 11.5 2.5 50 0.4 24.5 1.1 46.6 1.5 49.2l0.7 4.8h-22.1l-0.6-2.8c-0.3-1.5-0.8-5.1-1.1-8l-0.7-5.3-5.2 4.9c-9.7 9.2-20.6 13.2-35.8 13.2-7.3 0-11.3-0.5-15.6-2-18.9-6.6-28.4-25.3-23.8-46.4 5.2-23.2 27.9-36.5 65.4-38.3 15-0.7 14.2 0 12.2-10.2-2.6-14-10.6-21.2-25.1-22.7-8.7-0.9-21.1 1.6-30.8 6.2-4.1 1.9-7.6 3.3-7.8 3.1-0.5-0.5-5.3-14.9-5.3-15.9 0-2.2 18.6-9.4 29-11.1 6.3-1.1 24.9-0.6 30.8 0.8zm10.2 66.5l-7.2 0.2c-31.1 0.6-47.1 10.6-47.2 29.3-0.1 10.9 4.8 18.2 14.3 21.4 10.4 3.4 26.4-1.9 33.5-11.2 5.6-7.3 6.6-11.1 6.6-26z" />
      <path id="Layer" fill-rule="evenodd" class="s0"
        d="m567.5 1424.5c17.8 4.7 30.8 18.4 36.5 38.5 2.3 8.2 3.7 24.6 2.6 30.3l-0.7 3.7h-91.9v2.7c0 5.2 3 15.6 6.2 21.5 7 13.2 21.3 20.8 39.3 20.8 9.3 0 20.4-1.8 28.5-4.5 3.8-1.3 7.1-2.1 7.4-1.7 0.2 0.4 1.2 4.2 2.2 8.6 2.2 9.4 2.2 9.4-9.4 12.5-16.9 4.5-40.2 5.2-53.6 1.5-15.2-4.1-29.6-15.2-36.3-27.9-5.8-11-7.7-20.2-7.8-36 0-16.9 1.7-24.8 8.2-38.4 7.7-16.2 21.4-27.5 37.9-31.5 8-1.9 23.6-2 30.9-0.1zm-29.3 18.6c-10.1 4-19.5 16.3-22.6 29.7l-1.4 6.2h69.1l-0.6-5.9c-1.4-12.9-7.7-23.6-16.8-28.6-7.3-3.9-19.7-4.6-27.7-1.4z" />
      <path id="Layer" class="s0"
        d="m744 1424.9c-10.6 3.4-17.6 8.2-24 16.2l-3.8 4.8-0.7-9.9-0.7-10h-11.1-11l0.6 13.7c0.4 7.5 0.7 37.4 0.7 66.5v52.8h12.5 12.4l0.3-45.3 0.3-45.2 3.4-6.3c6.4-11.8 16.8-18.4 29-18.4 16 0 26.1 9.8 29 28.2 0.6 3.8 1.1 23.4 1.1 46.7v40.3h12.6 12.6l-0.5-46.8c-0.4-51.3-0.6-53.2-6.8-65.3-5.7-11.4-15.3-19.3-27.3-22.5-7.2-1.9-21.8-1.7-28.6 0.5z" />
      <path id="Layer" fill-rule="evenodd" class="s0"
        d="m911.2 1424.1c25.4 5.5 40.8 28.6 40.8 61.6v11.3h-93.1l0.6 4.7c3.3 25.1 17.7 38.7 42.5 40 10.7 0.6 24.6-1.4 33.1-4.7 2.8-1.2 5.3-1.9 5.4-1.8 0.9 0.9 4.2 17.4 3.7 18-1.5 1.5-18.3 5.7-27.6 6.8-41.2 5.2-69.8-11-78.7-44.7-2.7-10.2-2.9-30.4-0.4-41.1 2.1-9.2 5.7-18.1 10-24.8 7.6-11.8 21.1-21.7 34.1-24.8 7.2-1.8 22.5-2 29.6-0.5zm-26.9 18.6c-8.8 3.1-18.3 14.1-22.2 26-3.8 11.4-7.2 10.3 32 10.3h34.2l-0.6-6.3c-1.2-14.4-9.7-26.8-20.7-30.1-6.6-2-17.1-1.9-22.7 0.1z" />
      <path id="Layer" fill-rule="evenodd" class="s0"
        d="m1047.1 1424.6c10.2 3 17.3 7.9 23 15.7l2.7 3.8 0.8-9.1 0.7-9h21.2l-0.2 27.7c-1 108-0.9 105.2-3.2 115.3-4.9 22.6-18 37.2-38.9 43.4-14.6 4.3-36.8 4.1-53.2-0.5-6.7-1.8-17-6.3-17-7.4 0-0.3 1.4-4.8 3-10l3.1-9.5 5.9 3c22.1 11.1 49 10.1 62.9-2.6 8.2-7.4 11.8-17.6 12.7-36.4l0.7-12.5-3.1 3.8c-14.6 18.1-43.4 23.1-65.6 11.4-7.4-3.9-17.1-13.3-21.3-20.7-1.7-3-4.4-9.1-5.9-13.5-2.6-7.4-2.8-9.1-2.9-24 0-18.3 1.1-23.9 7.4-37 7.8-16.3 20.8-27.6 37.1-32.1 6.7-1.8 23.6-1.7 30.1 0.2zm-50.1 67.4c0 15.9 4.8 28.8 13.9 37.3 7.8 7.3 12.7 9.1 24.1 9.2 8.9 0 9.9-0.2 15.8-3.4 7.5-4.1 12.5-9.4 16.1-17 2.6-5.5 2.6-5.9 2.6-27.6 0-21.8 0-22.1-2.7-27.7-3.6-7.8-11-15-17.9-17.5-28.1-10.4-51.9 10.9-51.9 46.7z" />
      <path id="Layer" fill-rule="evenodd" class="s0"
        d="m1206.5 1424.5c22.7 5.8 38.6 22.3 44.6 46.4 1.9 7.3 2.1 10.5 1.6 23.5-0.7 23.2-5.3 35.2-18.7 48.6-8.5 8.6-17.9 13.8-29.5 16.6-9.3 2.2-25.1 2.2-33.5 0.1-29.3-7.6-47.1-33-47-67.2 0.2-34.3 18-59.8 47.4-67.5 9-2.4 26.7-2.6 35.1-0.5zm-16 17.8c-5.6-0.2-10.6 0.2-13.2 1.1-30 9.8-38.5 63-14 87.9 22.5 22.9 55.7 9.3 63.2-25.8 5.2-24.6-4.2-50.5-21.7-60-4.5-2.5-6.6-3-14.3-3.2z" />
      <path id="Layer" class="s0"
        d="m1328.9 1424.6c-25 4.5-43.4 20.1-51.4 43.4-2.5 7.4-2.9 10.4-3.3 22.6-0.5 16.7 1.4 26.1 7.5 38.4 12.4 24.5 42 36.5 75.5 30.6 7.1-1.3 20.8-5.3 20.8-6.1 0-0.9-4.2-18-4.5-18.3-0.2-0.2-4.1 0.9-8.7 2.4-7.1 2.4-10 2.8-19.8 2.8-9.5 0.1-12.5-0.3-17.4-2.1-11.7-4.4-20.8-13.8-25.8-26.4-1.6-4.1-2.2-8.4-2.6-17.4-0.4-11-0.2-12.7 2.2-19.8 3.2-9.5 5.9-13.8 12.3-19.9 6.2-5.7 11.2-8.3 20-10.4 8.5-2 21.9-1.3 30.1 1.6 3.1 1.2 6.4 2.3 7.4 2.6 1.3 0.5 2.1-1.1 4.3-8.1 1.4-4.8 2.4-9.3 2.1-10.1-0.3-0.7-3.6-2.2-7.3-3.3-14.2-4.3-27.5-5.1-41.4-2.5z" />
      <path id="Layer" fill-rule="evenodd" class="s0"
        d="m1541.9 1424.5c21.3 5.1 38 22.1 44.3 45.4 2.9 10.7 2.9 32.3 0 43.2-6.4 23.8-22.8 40.3-46.2 46.5-8.6 2.2-25.3 2.3-34 0-14.6-3.7-28.9-14.1-36.4-26.5-8-13.2-11.8-32.7-9.7-50.1 2.3-18.8 7.6-30.6 19.1-42 8.5-8.6 16.3-13.1 27.2-16 9.2-2.4 26.6-2.6 35.7-0.5zm-16.4 17.8c-9.7-0.4-13 0.5-20.8 5.1-19.3 11.3-26.4 47.5-14.2 72.2 13.8 27.9 46.3 30.8 63.2 5.6 5.7-8.5 8.4-17.4 9-29.8 1.2-22.7-7.9-42.3-23.2-50.2-4.1-2.1-6.7-2.6-14-2.9z" />
      <path id="Layer" class="s0"
        d="m1643.3 1424.5c-12.3 3.3-21.9 10.9-26.9 21.1-3.6 7.4-4.4 18.8-1.9 26.3 3.4 10.4 13.6 19.6 28.1 25.6 24.2 9.9 29.4 14.5 29.4 26 0 5.6-1.8 9.2-6.4 13.3-8.6 7.6-27.9 7.2-44-0.9-3.3-1.6-6.1-2.7-6.3-2.6-0.2 0.2-1.7 4.4-3.3 9.3-3.5 10.3-3.7 9.9 5.9 13.5 24.3 9.2 55.3 5 68.6-9.2 7.3-7.8 8.9-12.4 9-25.4 0-9.4-0.3-11.7-2.3-16.2-4.7-10.3-15.4-18.1-36-26.3-14.2-5.6-20.2-11.5-20.2-19.8 0-5.1 1.9-9.1 5.9-12.5 4.7-3.9 9.3-5 19-4.5 8 0.4 11.4 1.4 22.7 6.4 0.7 0.3 2.3-3 4.2-8.6l3.1-9.2-5.2-2.3c-8.7-4-16.3-5.5-27.7-5.4-5.8 0-12.9 0.7-15.7 1.4z" />
      <path id="Layer" fill-rule="evenodd" class="s0"
        d="m1834.1 1423.1c16.3-0.2 27.6 4.7 36.6 15.7l4.2 5.2 0.3-8.8 0.3-8.7 23.8-0.6-0.6 14.3c-0.4 7.9-0.7 50-0.7 93.5v79.3h-25v-72.4l-4.9 5.5c-4.8 5.4-13.6 11-20.4 13-1.8 0.5-6.3 1.4-10.2 1.9-28.3 3.7-52.4-14.4-60.6-45.5-3-11.4-3-31.5 0-43.8 5.8-24.1 21.4-41.3 42.7-47.2 2.7-0.7 9.2-1.4 14.5-1.4zm5.9 20.2c-12.7-0.4-19.8 2.4-28 11.3-8.2 8.9-12.4 22.2-12.3 38.9 0.1 26.1 12 43.9 31.9 47.4 15.5 2.8 29.7-4.7 37.1-19.7l3.8-7.6v-22.6c0-22.4 0-22.5-2.7-28-3.4-6.8-9.7-13.4-16.3-16.8-4-2-6.7-2.6-13.5-2.9z" />
      <path id="Layer" fill-rule="evenodd" class="s0"
        d="m2155.3 1424.5c17.3 4.5 30.3 17.9 36.1 37.4 2.4 8.2 3.9 21.6 3.1 28.7l-0.7 6.4h-91.8v3.8c0 4.9 2.4 14.2 5.1 19.4 2.9 5.8 10 13 15.7 16.1 12.9 7 34 7.5 52.6 1.3 3.9-1.3 7.2-2.3 7.4-2.1 0.5 0.5 4.2 14.8 4.2 16.3 0 1.8-5.5 3.9-16.4 6.4-12.4 2.9-38 3.1-47.6 0.5-11.4-3.1-18.8-7.4-27-15.6-12.1-12.1-16.8-23.8-17.7-44.3-1.2-25.4 5.2-44.5 20.1-59.4 7.6-7.5 15.6-12.2 25.6-14.8 7.3-1.9 24.1-2 31.3-0.1zm-27.4 17.9c-11.5 4.1-19.4 13.3-23.8 28-1.2 3.7-2.1 7.2-2.1 7.7 0 0.5 14.9 0.9 34.5 0.9 26.9 0 34.5-0.3 34.5-1.3 0-0.6-0.4-3.8-1-7-2.1-13.1-9.9-24-19.8-27.7-6.1-2.3-16.8-2.6-22.3-0.6z" />
      <path id="Layer" fill-rule="evenodd" class="s0"
        d="m2482.5 1424.5c11.3 2.9 20.1 7.9 27.9 15.8 13.3 13.4 18.8 28.1 18.9 50.2 0 16.1-1.8 25-7.4 36.5-4.9 9.9-14.9 20.6-23.9 25.7-21 11.9-49.9 11.6-68.7-0.6-20.2-13.1-30.8-36.9-28.9-64.7 1.4-20.1 7.3-34.2 19.6-46.4 8.5-8.6 16.3-13.1 27.2-16 9.3-2.4 26.8-2.7 35.3-0.5zm-29.5 19.1c-5.6 2.1-11.9 6.4-15.5 10.6-4.5 5.3-9.5 16.9-11.1 26-5.9 32.2 12.1 62 37.5 62.1 12.6 0.1 22.9-5.6 30.7-17.1 5.8-8.4 8.5-17.3 9.1-29.8 1.2-22.5-8-42.4-23.2-50.2-6.5-3.3-20.5-4.1-27.5-1.6z" />
      <path id="Layer" class="s0"
        d="m2604.6 1424.6c-26.9 4.9-46.3 23.3-52.7 50.2-3.1 12.7-2.4 32.3 1.5 43.7 8.9 26 28.9 40.7 57.7 42.2 6.3 0.4 13.9 0.1 19-0.6 8.3-1.3 23.9-5.6 23.9-6.8 0-2-4.3-18.3-4.8-18.3-0.4 0-4.3 1.2-8.7 2.6-9.8 3.2-22.9 4.2-30.6 2.4-17.3-4.1-30.1-17.3-33.8-34.8-1.6-7.6-1.4-20.4 0.5-27.5 6-23.1 24.2-36 48.7-34.3 4.8 0.3 11.2 1.5 14.5 2.7 9.3 3.4 9.1 3.4 11.8-5.5 1.3-4.4 2.4-8.7 2.4-9.6 0-1.2-2.1-2.3-7.5-3.9-14.3-4.3-27.6-5.1-41.9-2.5z" />
      <path id="Layer" fill-rule="evenodd" class="s0"
        d="m2747.5 1424.5c17.9 4.7 30.8 18.3 36.5 38.7 2.2 7.6 3.8 26.6 2.6 31.2l-0.6 2.6h-92v2.2c0.1 5.3 3.1 16.3 6.1 21.9 10.6 19.9 38.3 26.5 68.2 16.3 3.9-1.3 7.1-2.3 7.2-2.1 0.1 0.1 1 4 2 8.6 2.3 10 2.4 9.8-9.3 13-16.9 4.5-40.2 5.2-53.6 1.5-15.3-4.1-29.5-15-36.3-27.9-5.8-11.1-7.7-20.1-7.7-36.5 0.1-16.4 1.9-25.1 7.7-37.5 7.8-16.4 22.8-28.5 40.2-32.4 6.6-1.5 22.5-1.2 29 0.4zm-15.4 16.8c-9.5-0.4-15 1.2-21.5 6.2-6.7 5.1-13.2 17.1-15.9 29.2l-0.5 2.3h69.1l-0.6-5.9c-1.4-12.9-7.4-23.3-16.6-28.4-4.7-2.7-6.7-3.1-14-3.4z" />
      <path id="Layer" fill-rule="evenodd" class="s0"
        d="m2932.8 1424.5c16.5 3.9 26.2 13.2 31.7 30.5 1.6 4.8 1.9 11.5 2.6 49.5 0.4 24.2 1 46.4 1.4 49.2l0.8 5.3h-22.2l-0.5-3.3c-0.3-1.7-0.8-5.4-1.1-8l-0.6-4.9-5.3 5c-9.7 9.2-20.4 13.2-35.2 13.2-16.5 0-28.4-5.8-35.2-17-4.3-7.3-5.6-12-5.6-21-0.1-10.1 1.8-16.9 6.6-24.1 9.9-14.7 30.4-23.2 59.7-24.6l13.3-0.6-0.6-5.6c-1.9-16.8-9.9-25-25.7-26.7-8.7-0.9-21.1 1.6-30.8 6.2-4.1 1.9-7.6 3.3-7.8 3.1-0.5-0.5-5.3-14.9-5.3-15.9 0-2.2 18.6-9.4 29-11.1 6.3-1.1 24.9-0.6 30.8 0.8zm10.2 66.5l-7.2 0.2c-23.8 0.5-39.1 6.7-45 18.2-3 5.8-3 16.5 0 22.3 4.2 8 12.3 12 22.8 11 11.6-1.1 21.2-7.6 26.3-17.9 3-5.9 3.1-6.5 3.1-20z" />
      <path id="Layer" class="s0"
        d="m3055.7 1424.1c-9.1 2.1-18.4 8.5-24.9 17.1l-3.6 4.8-0.7-10-0.8-10h-11-11l0.6 6.7c0.4 3.8 0.7 33.7 0.7 66.5v59.8h11.9 12l0.3-43.7c0.3-43.2 0.4-43.9 2.7-49.6 3.1-7.9 9.4-15.3 16.1-19.1 4.6-2.6 6.5-3 12.5-3 5.3 0 8 0.5 11.1 2.1 6 3.2 11.1 9.7 13.6 17.3 2.1 6.2 2.2 8.6 2.6 51.2l0.4 44.8h11.8 11.9l0.3-45.8 0.3-45.7 2.6-5.6c11.3-24 42-24.9 50.8-1.5 3.3 8.8 4.1 20.8 4.1 61.3v37.3h12.1 12l-0.4-47.8c-0.3-42-0.6-48.4-2.1-53.7-4.5-15.1-12.2-25.2-23.4-30.7-6.5-3.2-7.1-3.3-19.2-3.3-12.5 0-12.6 0-20.2 3.8-8 3.9-17.5 12.2-20.4 17.8l-1.6 3.2-2.2-4c-8.5-14.9-19.7-21.4-36.5-21.2-4.7 0.1-10.3 0.5-12.4 1z" />
      <path id="Layer" fill-rule="evenodd" class="s0"
        d="m3291.5 1424.5c17.2 4.5 27 14.6 32.1 33 1.4 5 1.8 14 2.4 51.5 0.4 25 1.1 46.5 1.5 47.7 0.7 2.3 0.7 2.3-10.8 2.3h-11.5l-0.7-6.8c-0.3-3.7-0.8-7.2-1-7.8-0.2-0.6-2.7 1-5.5 3.7-10.2 9.6-21.7 13.4-38.4 12.7-12.9-0.5-20.1-3.5-27.6-11.4-8-8.4-9.5-12.6-9.5-26.9 0-11.6 0.1-12.3 3.3-18.7 3.8-7.8 11.7-15.5 20.1-19.7 11.9-6.1 30.6-10.1 46.5-10.1h8.9l-0.5-6.3c-0.6-7.1-3.7-14.9-7.5-18.9-1.4-1.5-4.8-3.7-7.7-4.9-10.3-4.6-29.5-2.5-43.9 4.8-2.7 1.3-5 2.3-5.2 2.1-0.1-0.2-1.3-3.5-2.5-7.3-1.3-3.9-2.5-7.5-2.7-8.2-0.9-2.3 13.6-8.3 25.7-10.8 9.2-1.9 27.3-1.8 34.5 0zm10.7 66.5l-7.4 0.1c-30.5 0.6-46.6 10-47.6 28-0.4 5.9 0 7.7 2.3 12.4 3.9 8.1 9.3 11 20 11 6.7 0 8.9-0.4 13.6-2.8 6.6-3.2 13.2-9.9 16.2-16.5 1.8-3.9 2.2-7.1 2.5-18.5z" />
      <path id="Layer" class="s0"
        d="m355 1426.7c0 0.5 11.2 30.3 24.9 66.3l24.8 65.5 11.9 0.3 11.9 0.2 25.2-64.7c13.9-35.7 25.6-65.6 25.9-66.6 0.6-1.6-0.4-1.7-12.4-1.7h-12.9l-2.6 7.2c-5.6 15.6-28 80.8-31 90.1l-3 9.8-2.4-8.3c-1.3-4.6-9.4-28.7-18.1-53.5l-15.7-45.3h-13.2c-7.3 0-13.3 0.3-13.3 0.7z" />
      <path id="Layer" class="s0" d="m1405 1492.5v66.5h12.5 12.5v-66.5-66.5h-12.5-12.5z" />
      <path id="Layer" class="s0"
        d="m1936.3 1472.7c0.3 39.8 0.6 47.8 2.1 53.2 6.7 25.5 25.9 38.7 51.3 35.1 13.1-1.8 24.5-8.2 32.4-18.3l3.9-4.9v3.9c0 2.1 0.3 6.8 0.7 10.6l0.6 6.7h11 11l-0.6-11.3c-0.4-6.1-0.7-36.1-0.7-66.5v-55.2h-12.5-12.4l-0.3 45.2-0.3 45.3-3 5.3c-3.9 7.2-12.2 14.6-18.7 16.8-3.1 1.1-8.1 1.8-11.9 1.8-12.3 0-20.6-6.7-25.1-20.2-2.1-6.4-2.2-8.4-2.6-50.5l-0.3-43.7h-12.6-12.5z" />
      <path id="Layer" class="s0"
        d="m2265 1426.4c0 0.3 47.4 125.4 49.5 130.8 0.6 1.6 2.2 1.8 12.4 1.8h11.7l25.7-65.8c14.1-36.1 25.7-66 25.7-66.5 0-0.4-5.8-0.7-12.9-0.7h-12.8l-17.8 51.7c-9.7 28.5-17.9 52.5-18.2 53.3-0.2 0.8-1.9-3.2-3.7-9-1.7-5.8-9.9-29.7-18.1-53.3l-14.9-42.7h-13.3c-7.3 0-13.3 0.2-13.3 0.4z" />
    </g>
  </g>
</svg>